<svg width="32" height="32" viewBox="0 0 32 32" fill="none" xmlns="http://www.w3.org/2000/svg">
<path opacity="0.2" d="M30.7458 31.5024C30.7458 31.2294 24.6262 31.0047 17.0863 31.0047C9.54636 31.0047 3.42676 31.2294 3.42676 31.5024C3.42676 31.7753 9.54636 32 17.0863 32C24.6437 32 30.7458 31.7753 30.7458 31.5024Z" fill="#5D5D5D"/>
<path d="M17.2791 6.29858C23.2234 6.29858 28.0454 10.7133 28.0454 16.1554V26.0121H17.2791C11.3349 26.0121 6.51282 21.5975 6.51282 16.1554V6.29858H17.2791Z" fill="#63A60F"/>
<path opacity="0.3" d="M26.5024 11.0825C25.6081 12.0297 25.0645 13.2658 25.0645 14.6143C25.0645 16.6209 26.2569 18.3708 28.0279 19.3179V16.1554C28.0279 14.3092 27.4843 12.5755 26.5024 11.0825Z" fill="#63A60F"/>
<path d="M22.2765 7.43835C20.5932 8.32129 19.4709 9.97479 19.4709 11.8851C19.4709 14.7105 21.9784 17.0062 25.0645 17.0062C26.1517 17.0062 27.1687 16.7172 28.0279 16.2196V16.1553C28.0279 12.3667 25.6958 9.0758 22.2765 7.43835Z" fill="#63A60F"/>
<path opacity="0.5" d="M13.8248 8.2085C11.0543 8.2085 8.51177 9.09143 6.51282 10.5844V16.171C6.51282 21.6131 11.3349 26.0278 17.2791 26.0278H22.4343C24.3105 24.1335 25.4503 21.6291 25.4503 18.8679C25.4503 12.9764 20.2425 8.2085 13.8248 8.2085Z" fill="#EFF6E7"/>
<path d="M28.0279 25.996L17.2791 26.0121C11.3349 26.0121 6.51282 21.5974 6.51282 16.1553V6.31458L28.0279 25.996Z" fill="#63A60F"/>
<path opacity="0.3" d="M8.17865 9.83027C8.17865 17.3111 14.8068 23.3633 22.9604 23.3633C23.6618 23.3633 24.3456 23.3151 25.0119 23.2348L8.31893 7.96808C8.23125 8.57811 8.17865 9.20419 8.17865 9.83027Z" fill="#63A60F"/>
<path opacity="0.3" d="M28.0279 26.0121L6.60052 6.39484C9.12552 9.84631 12.0363 13.3459 14.9996 16.2356C17.3142 18.483 23.9949 23.5077 28.0279 26.0121Z" fill="#63A60F"/>
<path opacity="0.3" d="M13.5442 12.7359L6.51282 6.31458V16.1714C6.51282 20.5218 9.59892 24.2141 13.8599 25.5144C12.0362 23.8288 10.914 21.5171 10.914 18.9807C10.914 16.5727 11.9135 14.3894 13.5442 12.7359Z" fill="#63A60F"/>
<path opacity="0.3" d="M23.1181 21.5172C21.2945 23.5559 18.524 24.8723 15.4204 24.8723C13.3513 24.8723 11.4225 24.2944 9.82684 23.2991C11.7557 24.9847 14.3683 26.0282 17.2616 26.0282H28.0278V26.0121L23.1181 21.5172Z" fill="#63A60F"/>
<path opacity="0.3" d="M7.14407 12.2062C7.14407 10.6169 7.44216 9.07576 8.00327 7.66306L6.51282 6.31458V16.1714C6.51282 21.6134 11.3349 26.0281 17.2791 26.0281H28.0454V26.0121L26.9758 25.0328C25.4152 25.5465 23.7494 25.8194 21.9959 25.8194C13.7897 25.8034 7.14407 19.7192 7.14407 12.2062Z" fill="#EFF6E7"/>
<path d="M27.8526 27.9225C28.6066 27.7298 29.3956 28.1472 29.5885 28.8375C29.7989 29.5278 29.343 30.2502 28.5715 30.4268C27.8175 30.6194 27.0285 30.202 26.8356 29.5117C26.6427 28.8215 27.0986 28.1151 27.8526 27.9225ZM27.572 26.9432C26.2219 27.2803 25.4153 28.5325 25.7835 29.7686C26.1342 31.0047 27.5194 31.7432 28.8696 31.406C30.2198 31.0689 31.0264 29.8007 30.6581 28.5807C30.3074 27.3445 28.9222 26.6221 27.572 26.9432Z" fill="#63A60F"/>
<path opacity="0.5" d="M29.3604 29.961C29.1675 30.1858 28.9044 30.3623 28.5888 30.4426C27.8348 30.6353 27.0458 30.2179 26.8529 29.5276C26.7126 29.0139 26.9055 28.5001 27.3263 28.1951C27.1159 27.9222 26.9406 27.6172 26.7652 27.3122C25.9236 27.858 25.5027 28.8373 25.7833 29.8005C26.134 31.0366 27.5192 31.775 28.8694 31.4379C29.5006 31.2774 30.0091 30.9242 30.3423 30.4587C30.0091 30.2981 29.676 30.1376 29.3604 29.961Z" fill="#63A60F"/>
<path d="M7.02114 27.9225C7.77513 27.7459 8.56419 28.1633 8.75708 28.8536C8.94996 29.5439 8.49406 30.2663 7.74006 30.4428C6.98607 30.6194 6.19701 30.202 6.00413 29.5118C5.81125 28.8215 6.26715 28.0991 7.02114 27.9225ZM6.74059 26.9432C5.39042 27.2643 4.58382 28.5325 4.93452 29.7686C5.28521 31.0047 6.67045 31.7432 8.02062 31.4221C9.37079 31.101 10.1774 29.8328 9.84423 28.5967C9.476 27.3606 8.09076 26.6221 6.74059 26.9432Z" fill="#63A60F"/>
<path opacity="0.5" d="M8.51191 29.9771C8.31903 30.2018 8.05601 30.3784 7.74039 30.4426C6.9864 30.6192 6.19734 30.2018 6.00446 29.5115C5.86418 28.9978 6.0746 28.4841 6.47789 28.1791C6.26748 27.9062 6.09213 27.6012 5.93432 27.2961C5.09266 27.8259 4.65429 28.8052 4.93484 29.7684C5.28554 31.0045 6.67077 31.7429 8.02094 31.4219C8.65219 31.2774 9.17823 30.9082 9.49386 30.4426C9.14316 30.3142 8.82754 30.1536 8.51191 29.9771Z" fill="#63A60F"/>
<path d="M7.19668 5.62429C6.86352 5.62429 6.58297 5.36744 6.58297 5.06242C6.58297 3.74605 6.17967 2.75074 5.40814 2.09255C4.16318 1.01697 2.28697 1.12935 2.26944 1.12935C1.93628 1.16145 1.63819 0.920651 1.60312 0.615637C1.56805 0.310623 1.83107 0.0377154 2.16423 0.00560866C2.26944 0.00560866 4.58401 -0.154925 6.23227 1.24172C7.28435 2.12466 7.81039 3.40893 7.81039 5.04637C7.81039 5.36744 7.54737 5.62429 7.19668 5.62429Z" fill="#63A60F"/>
</svg>
