<svg display="none" xmlns="http://www.w3.org/2000/svg">
  <symbol id="scooter" viewBox="0 0 50 50">
    <g>
      <path d="M48.5118 34.3921C49.2823 34.3502 49.8947 33.7132 49.8947 32.9314C49.8947 28.7161 46.5111 25.4142 42.1917 25.4142H40.7643L39.0195 17.1328C40.7031 16.4013 41.884 14.7214 41.884 12.77C41.884 10.1487 39.754 8.01605 37.1358 8.01605H30.3863C29.5783 8.01605 28.9232 8.67191 28.9232 9.4809V11.3051H25.3268C24.5188 11.3051 23.8637 11.961 23.8637 12.77C23.8637 13.5789 24.5188 14.2348 25.3268 14.2348H28.9232V16.059C28.9232 16.868 29.5783 17.5239 30.3863 17.5239H31.0359C29.8246 18.9564 29.0919 20.8069 29.0919 22.8265V31.1623C29.0919 31.2051 29.0572 31.2398 29.0146 31.2398H23.1044C23.0703 31.2398 23.0398 31.217 23.0302 31.1843L21.4369 25.7935C22.721 25.45 23.6698 24.2757 23.6698 22.8832C23.6698 19.5769 20.9832 16.887 17.681 16.887H4.49863C2.01816 16.887 0 18.9076 0 21.3911C0 23.6617 1.68682 25.5441 3.87148 25.8507C1.55391 27.9263 0.0924805 30.9415 0.0924805 34.2925V38.853C0.0924805 39.662 0.747559 40.3178 1.55557 40.3178H2.82148C3.50293 43.7202 6.50957 46.2914 10.1054 46.2914C13.7012 46.2914 16.7078 43.7202 17.3893 40.3178H35.2867C35.9682 43.7202 38.9748 46.2914 42.5706 46.2914C46.6671 46.2914 49.9999 42.9545 49.9999 38.853C50 37.1807 49.4457 35.6359 48.5118 34.3921V34.3921ZM46.729 31.4665H43.4354C43.1515 31.4334 42.8633 31.4145 42.5707 31.4145C42.0463 31.4145 41.5348 31.47 41.0408 31.5739V28.3439H42.1918C44.3346 28.3439 46.1062 29.6336 46.729 31.4665V31.4665ZM31.8493 10.9456H37.1358C38.1405 10.9456 38.9579 11.764 38.9579 12.7699C38.9579 13.7757 38.1405 14.5941 37.1358 14.5941H31.8493V10.9456ZM23.1045 34.1694H29.0146C30.6708 34.1694 32.0181 32.8204 32.0181 31.1622V22.8264C32.0181 20.3086 33.7843 18.1959 36.1414 17.6654L38.1147 27.0316V32.9049C36.6829 33.9829 35.6518 35.5662 35.2868 37.388H20.7409C20.0576 32.1324 15.7176 28.2002 10.3006 28.2002C7.88506 28.2002 5.7165 28.9893 4.00557 30.3457C5.41885 27.7 8.20518 25.8954 11.4056 25.8954H18.4159L20.2247 32.0156C20.5993 33.2837 21.7836 34.1694 23.1045 34.1694ZM3.1375 37.388C3.39316 35.8296 4.05889 34.4239 5.07695 33.3346C6.40576 31.9128 8.26084 31.1298 10.3004 31.1298C14.074 31.1298 17.1226 33.7818 17.7771 37.3879H3.1375V37.388ZM4.49863 22.9658C3.63154 22.9658 2.92607 22.2594 2.92607 21.3911C2.92607 20.5229 3.63154 19.8165 4.49863 19.8165H17.681C19.3698 19.8165 20.7438 21.1921 20.7438 22.883C20.7313 22.9433 20.6348 22.9831 20.4552 22.9656C19.238 22.9656 19.5859 22.9656 19.3324 22.9656C17.5843 22.9658 4.50713 22.9658 4.49863 22.9658V22.9658ZM10.1054 43.3617C8.13437 43.3617 6.45625 42.0868 5.84746 40.3177H14.3633C13.7545 42.0868 12.0764 43.3617 10.1054 43.3617ZM42.5707 43.3617C40.0876 43.3617 38.0675 41.339 38.0675 38.8529C38.0675 36.3667 40.0877 34.3442 42.5707 34.3442C45.0538 34.3442 47.0739 36.3667 47.0739 38.8529C47.0739 41.339 45.0537 43.3617 42.5707 43.3617Z"/>
      <path d="M42.5707 40.3275C43.3841 40.3275 44.0435 39.6673 44.0435 38.853C44.0435 38.0386 43.3841 37.3785 42.5707 37.3785C41.7573 37.3785 41.098 38.0386 41.098 38.853C41.098 39.6673 41.7573 40.3275 42.5707 40.3275Z"/>
      <path d="M1.52443 12.6409H14.6463C15.4543 12.6409 16.1094 11.985 16.1094 11.176C16.1094 10.367 15.4543 9.71118 14.6463 9.71118H1.52443C0.716418 9.71118 0.0613403 10.367 0.0613403 11.176C0.0613403 11.985 0.716418 12.6409 1.52443 12.6409V12.6409Z"/>
      <path d="M6.38496 6.63824H19.6199C20.4279 6.63824 21.083 5.98238 21.083 5.1734C21.083 4.36442 20.4279 3.70856 19.6199 3.70856H6.38496C5.57695 3.70856 4.92188 4.36442 4.92188 5.1734C4.92188 5.98238 5.57695 6.63824 6.38496 6.63824Z"/>
    </g>
  </symbol>
  <symbol id="return-box" viewBox="0 0 50 50">
    <g>
      <path d="M33.6914 50H11.7188C5.25703 50 0 44.743 0 38.2812V11.7188C0 5.25703 5.25703 0 11.7188 0H38.2812C44.743 0 50 5.25703 50 11.7188V29.0039C49.8969 31.5953 46.196 31.5934 46.0938 29.0039V11.7188C46.0938 7.41094 42.5891 3.90625 38.2812 3.90625H11.7188C7.41094 3.90625 3.90625 7.41094 3.90625 11.7188V38.2812C3.90625 42.5891 7.41094 46.0938 11.7188 46.0938H33.6914C36.2828 46.1969 36.2809 49.8978 33.6914 50ZM31.9336 10.7422C31.9336 9.66348 31.0592 8.78906 29.9805 8.78906H20.0195C17.4281 8.89219 17.4301 12.5931 20.0195 12.6953H29.9805C31.0592 12.6953 31.9336 11.8209 31.9336 10.7422ZM31.3477 42.8711C30.849 42.8711 30.3503 42.6814 29.9691 42.3016L26.7183 39.0627C25.6101 37.958 25.0001 36.4892 25 34.9266C25 33.364 25.6101 31.8951 26.7178 30.7907C26.7229 30.7855 29.9841 27.6055 29.9841 27.6055C30.7564 26.8522 31.993 26.8681 32.746 27.6402C33.499 28.4125 33.4835 29.649 32.7112 30.4021L29.4696 33.5631C28.7211 34.2857 28.7238 35.5764 29.4757 36.2957L32.7262 39.5342C33.9614 40.7582 33.0636 42.8814 31.3477 42.8711ZM47.5287 47.4901C52.8413 42.1565 49.0062 32.8926 41.4551 32.9102H34.4727C31.8813 33.0133 31.8832 36.7142 34.4727 36.8164H41.4551C44.0128 36.8164 46.0938 38.8974 46.0938 41.4551C46.0938 44.0128 44.0348 46.0938 41.5039 46.0938C38.9143 46.1957 38.9129 49.8974 41.5039 50C43.7871 50 45.9268 49.1086 47.5287 47.4901Z"/>
    </g>
  </symbol>
  <symbol id="nav-arrow" viewBox="0 0 8 4">
    <g>
      <path d="M3.35912 3.8938L0.106798 0.626834C-0.0355992 0.483482 -0.0355992 0.251228 0.106798 0.107514C0.249195 -0.035838 0.480484 -0.035838 0.622881 0.107514L3.61715 3.11535L6.61142 0.107876C6.75382 -0.0354757 6.98511 -0.0354757 7.12787 0.107876C7.27026 0.251229 7.27026 0.483844 7.12787 0.627196L3.87554 3.89416C3.73461 4.03534 3.49969 4.03534 3.35912 3.8938Z"/>
    </g>
  </symbol>
  <symbol id="24hour" viewBox="0 0 50 50">
    <g>
      <path d="M48.8663 17.5358C48.6252 16.7633 47.8031 16.3334 47.0314 16.5745C46.933 16.605 46.8407 16.6451 46.7545 16.6931C46.1609 17.0238 45.8595 17.7353 46.0701 18.4093C46.7339 20.5341 47.0703 22.7516 47.0703 25C47.0703 37.1696 37.1696 47.0703 25 47.0703C12.8304 47.0703 2.92969 37.1696 2.92969 25C2.92969 12.8304 12.8304 2.92969 25 2.92969C30.669 2.92969 36.0832 5.10788 40.1646 8.96683L37.0239 8.18405C36.2389 7.98874 35.4439 8.46634 35.2482 9.2514C35.0525 10.0365 35.5301 10.8311 36.3152 11.0268L44.7544 13.1302C44.7586 13.1313 44.7632 13.1321 44.7674 13.1332C44.8807 13.1603 44.9951 13.1737 45.1088 13.1737C45.4967 13.1737 45.8748 13.0196 46.1533 12.7361C46.5172 12.3661 46.6579 11.8317 46.524 11.3308L44.2822 2.94342C44.0731 2.16179 43.2701 1.69792 42.4889 1.90659C41.7072 2.11563 41.243 2.91824 41.452 3.69987L42.3298 6.98395C37.69 2.5219 31.4926 0 25 0C18.3224 0 12.0441 2.60048 7.32231 7.32231C2.60048 12.0441 0 18.322 0 25C0 31.6776 2.60048 37.9559 7.32231 42.6777C12.0441 47.3995 18.3224 50 25 50C31.6776 50 37.9559 47.3995 42.6777 42.6777C47.3995 37.9559 50 31.678 50 25C50 22.4548 49.6185 19.9436 48.8663 17.5358Z"/>
      <path d="M28.3367 26.1925L28.2139 26.1921V18.7317C28.2139 18.0988 27.8076 17.5373 27.2064 17.3397C26.6048 17.1425 25.9449 17.3534 25.5695 17.8634L19.012 26.7731C18.6847 27.2175 18.6352 27.8084 18.8839 28.3008C19.1322 28.7937 19.6369 29.105 20.1889 29.1061L25.2842 29.116V31.3568C25.2842 32.1659 25.9403 32.8216 26.749 32.8216C27.5581 32.8216 28.2139 32.1659 28.2139 31.3568V29.1218H28.331H28.334C29.1416 29.1218 29.7969 28.4679 29.7989 27.66C29.8004 26.8509 29.1458 26.194 28.3367 26.1925ZM23.0846 26.1822L25.2842 23.193V26.1864L23.0846 26.1822Z"/>
      <path d="M17.5968 29.8771H13.2591C13.9473 29.0779 14.7553 28.2944 15.509 27.5631C17.4152 25.7141 19.0617 24.1177 19.0617 22.2618C19.0617 19.4744 16.7931 17.207 14.0045 17.207C11.9679 17.207 10.1402 18.4189 9.34869 20.295C9.03436 21.0404 9.38379 21.8994 10.1292 22.2138C10.8742 22.5289 11.7336 22.179 12.048 21.4337C12.3802 20.6455 13.1485 20.1367 14.0045 20.1367C15.1775 20.1367 16.1316 21.09 16.1316 22.2618C16.1316 22.2935 16.1144 22.5937 15.5171 23.3345C15.0013 23.9742 14.2571 24.696 13.4693 25.4601C11.8801 27.0016 10.0792 28.7483 9.18924 30.7461C8.98706 31.1993 9.02826 31.7238 9.29872 32.1396C9.5688 32.5558 10.0311 32.8068 10.527 32.8068H17.5964C18.4055 32.8068 19.0613 32.151 19.0613 31.3419C19.0613 30.5332 18.4059 29.8771 17.5968 29.8771Z"/>
      <path d="M36.6352 22.269C36.145 22.269 35.6739 22.3606 35.2345 22.5273V18.6226C35.2345 17.8135 34.5787 17.1577 33.7696 17.1577C32.9605 17.1577 32.3048 17.8135 32.3048 18.6226V31.3774C32.3048 32.1865 32.9605 32.8422 33.7696 32.8422C34.5787 32.8422 35.2345 32.1865 35.2345 31.3774V27.2754C35.2528 27.1827 35.2631 27.087 35.2631 26.989C35.2631 26.0185 35.8913 25.1987 36.6352 25.1987C37.3795 25.1987 38.0077 26.0185 38.0077 26.989V31.3774C38.0077 32.1865 38.6635 32.8422 39.4726 32.8422C40.2817 32.8422 40.9374 32.1865 40.9374 31.3774V26.989C40.9374 24.3866 39.0076 22.269 36.6352 22.269Z"/>
    </g>
  </symbol>
  <symbol id="arrow-left" viewBox="0 0 19 32">
    <g>
      <path d="M0.384645 17.0149L16.3979 31.6079C16.9234 32.1307 17.7756 32.1307 18.3011 31.6079C18.8266 31.0851 18.8266 30.2369 18.3011 29.7141L3.25334 16L18.2998 2.2859C18.8252 1.76309 18.8252 0.914839 18.2998 0.392073C17.7743 -0.130695 16.9221 -0.130695 16.3966 0.392072L0.38331 14.9851C0.103241 15.2638 -0.0168347 15.6332 0.00187251 15.9986C-0.0155416 16.3654 0.104495 16.7348 0.384645 17.0149Z" />
    </g>
  </symbol>
  <symbol id="arrow-right" viewBox="0 0 19 32">
    <g>
      <path d="M18.3105 14.9851L2.29726 0.392105C1.77179 -0.130702 0.919579 -0.130702 0.394105 0.392105C-0.131368 0.914872 -0.131368 1.76312 0.394105 2.28593L15.4419 16L0.395438 29.7141C-0.130036 30.2369 -0.130036 31.0852 0.395438 31.6079C0.920912 32.1307 1.77312 32.1307 2.29855 31.6079L18.3119 17.0149C18.592 16.7362 18.712 16.3668 18.6933 16.0014C18.7107 15.6346 18.5907 15.2652 18.3105 14.9851Z" />
    </g>
  </symbol>
  <symbol id="car" viewBox="0 0 32 22">
    <g>
      <path d="M31.9173 13.3484L30.2976 10.8701C29.5823 9.77492 28.3671 9.12098 27.0461 9.12098H22.8571V6.71038C22.8571 5.23856 21.6602 4.04169 20.1884 4.04169H12.3465C11.9065 1.74357 9.88363 0 7.45908 0C4.71366 0 2.48035 2.2336 2.48035 4.97872C2.48035 6.70486 3.3642 8.22754 4.70232 9.12098H0.508045C0.227283 9.12098 0 9.34826 0 9.62902C0 9.90978 0.227283 10.1371 0.508045 10.1371H5.58733V11.1529H3.55544C3.27497 11.1529 3.04769 11.3801 3.04769 11.6609C3.04769 11.9417 3.27497 12.1687 3.55544 12.1687H5.58733V13.1845H0.508045C0.227283 13.1845 0 13.4117 0 13.6925C0 13.9733 0.227283 14.2006 0.508045 14.2006H5.58733V16.4501C4.69186 16.8451 4.06349 17.7386 4.06349 18.7785V19.2798C4.06349 19.5606 4.29106 19.7879 4.57153 19.7879H9.07651C9.36541 21.0307 10.4797 21.9607 11.8094 21.9607C13.1394 21.9607 14.2535 21.0307 14.5424 19.7879H24.3147C24.6038 21.0307 25.7182 21.9607 27.0476 21.9607C28.377 21.9607 29.4916 21.0307 29.7805 19.7879H31.4921C31.7729 19.7879 31.9999 19.5606 31.9999 19.2798V13.6262C31.9999 13.5274 31.9711 13.4306 31.9173 13.3484ZM3.49615 4.97872C3.49615 2.79367 5.27402 1.0158 7.45908 1.0158C9.64443 1.0158 11.422 2.79367 11.422 4.97872C11.422 7.16378 9.64443 8.94165 7.45908 8.94165C5.27402 8.94165 3.49615 7.16378 3.49615 4.97872ZM6.60313 14.2006H7.61893C7.89969 14.2006 8.12698 13.9733 8.12698 13.6925C8.12698 13.4117 7.89969 13.1845 7.61893 13.1845H6.60313V12.1687H10.1589C10.4393 12.1687 10.6666 11.9417 10.6666 11.6609C10.6666 11.3801 10.4393 11.1529 10.1589 11.1529H6.60313V10.1371H13.2063C13.4867 10.1371 13.7143 9.90978 13.7143 9.62902C13.7143 9.34826 13.4867 9.12098 13.2063 9.12098H10.2158C11.5333 8.2412 12.4073 6.75078 12.434 5.05749H20.1887C21.0999 5.05749 21.8413 5.79921 21.8413 6.71038V16.2322H6.60953C6.60749 16.2322 6.60546 16.2327 6.60313 16.2327V14.2006ZM21.8413 18.7718H14.5886C14.5086 18.1876 14.2494 17.661 13.8666 17.248H21.8413V18.7718ZM6.60953 17.248H9.75225C9.36977 17.661 9.11022 18.1876 9.03059 18.7718H5.07929C5.08277 17.9313 5.76811 17.248 6.60953 17.248ZM11.8094 20.9449C10.8215 20.9449 10.0173 20.141 10.0173 19.1528C10.0173 18.1649 10.8215 17.3607 11.8094 17.3607C12.7976 17.3607 13.6015 18.1649 13.6015 19.1528C13.6015 20.141 12.7976 20.9449 11.8094 20.9449ZM27.0476 20.9449C26.0597 20.9449 25.2555 20.141 25.2555 19.1528C25.2555 18.1649 26.0597 17.3607 27.0476 17.3607C28.0358 17.3607 28.8397 18.1649 28.8397 19.1528C28.8397 20.141 28.0358 20.9449 27.0476 20.9449ZM30.9841 18.7718H29.8267C29.6398 17.4037 28.4662 16.3449 27.0476 16.3449C25.629 16.3449 24.4556 17.4037 24.2684 18.7718H22.8571V10.1371H27.0461C28.0224 10.1371 28.9202 10.6187 29.4474 11.4255L30.9841 13.7774V18.7718Z"/>
      <path d="M27.8785 19.153C27.8785 19.6119 27.5065 19.9839 27.0476 19.9839C26.5887 19.9839 26.2166 19.6119 26.2166 19.153C26.2166 18.694 26.5887 18.322 27.0476 18.322C27.5065 18.322 27.8785 18.694 27.8785 19.153Z"/>
      <path d="M12.6404 19.153C12.6404 19.6119 12.2684 19.9839 11.8094 19.9839C11.3508 19.9839 10.9788 19.6119 10.9788 19.153C10.9788 18.694 11.3508 18.322 11.8094 18.322C12.2684 18.322 12.6404 18.694 12.6404 19.153Z"/>
      <path d="M8.12698 4.9788V2.75653C8.12698 2.47577 7.8997 2.24878 7.61894 2.24878C7.33847 2.24878 7.11118 2.47577 7.11118 2.75653V4.81313L6.07446 6.23526C5.90908 6.46196 5.95878 6.77934 6.18548 6.94443C6.27617 7.01069 6.3808 7.04237 6.48456 7.04237C6.64121 7.04237 6.79584 6.97 6.89524 6.8334L8.02961 5.27787C8.09268 5.19126 8.12698 5.08663 8.12698 4.9788Z"/>
      <path d="M26.8764 10.6448H25.9048C25.624 10.6448 25.3967 10.8721 25.3967 11.1528V14.7083C25.3967 14.989 25.624 15.2163 25.9048 15.2163H29.3233C29.6419 15.2163 29.927 15.0515 30.0868 14.7763C30.2467 14.5011 30.247 14.1715 30.0895 13.8968L28.9033 11.8207C28.4892 11.0959 27.7123 10.6448 26.8764 10.6448ZM26.4128 14.2005V11.6609H26.8764C27.3487 11.6609 27.7873 11.9152 28.0212 12.325L29.0928 14.2005H26.4128Z"/>
    </g>
  </symbol>
  <symbol id="cart" viewBox="0 0 32 31">
    <g>
      <path d="M31.7978 4.03875C31.6226 3.81981 31.3574 3.69238 31.0769 3.69238H6.5095L5.8225 0.7155C5.72581 0.296688 5.35287 0 4.92306 0H0.923063C0.413312 0 0 0.413312 0 0.923125C0 1.43294 0.413312 1.84619 0.923063 1.84619H4.18875L8.852 22.0537C8.94863 22.4726 9.32162 22.7692 9.75144 22.7692H28.2461C28.7559 22.7692 29.1692 22.3559 29.1692 21.8462C29.1692 21.3364 28.7559 20.9231 28.2461 20.9231H10.4858L9.77581 17.8462H28.3078C28.7395 17.8462 29.1136 17.5469 29.2083 17.1257L31.9775 4.81806C32.0391 4.54444 31.9729 4.25775 31.7978 4.03875ZM27.5693 16H9.34975L6.93556 5.5385H29.9231L27.5693 16Z"/>
      <path d="M13.5384 24C11.6722 24 10.1538 25.5183 10.1538 27.3846C10.1538 29.2509 11.6721 30.7692 13.5384 30.7692C15.4047 30.7692 16.9231 29.2509 16.9231 27.3846C16.9231 25.5183 15.4047 24 13.5384 24ZM13.5384 28.9231C12.6901 28.9231 12 28.2329 12 27.3846C12 26.5363 12.6901 25.8462 13.5384 25.8462C14.3867 25.8462 15.0769 26.5363 15.0769 27.3846C15.0769 28.2329 14.3867 28.9231 13.5384 28.9231Z"/>
      <path d="M24.6153 24C22.7491 24 21.2307 25.5183 21.2307 27.3846C21.2307 29.2509 22.749 30.7692 24.6153 30.7692C26.4816 30.7692 28 29.2509 28 27.3846C28 25.5183 26.4817 24 24.6153 24ZM24.6153 28.9231C23.767 28.9231 23.0769 28.233 23.0769 27.3847C23.0769 26.5364 23.767 25.8462 24.6153 25.8462C25.4637 25.8462 26.1538 26.5364 26.1538 27.3847C26.1538 28.233 25.4637 28.9231 24.6153 28.9231Z"/>
    </g>
  </symbol>
  <symbol id="close" viewBox="0 0 32 32">
    <g>
      <path d="M17.8759 16.0087L31.593 2.2916C32.1224 1.7803 32.1371 0.936661 31.6258 0.40724C31.1145 -0.122182 30.2708 -0.136862 29.7414 0.374444C29.7303 0.385141 29.7194 0.396074 29.7086 0.40724L15.9914 14.1243L2.27434 0.407162C1.74492 -0.104144 0.901276 -0.0894636 0.38997 0.439958C-0.108842 0.956417 -0.108842 1.77515 0.38997 2.2916L14.1071 16.0087L0.38997 29.7258C-0.130316 30.2461 -0.130316 31.0898 0.38997 31.6101C0.910334 32.1304 1.75397 32.1304 2.27434 31.6101L15.9914 17.8931L29.7085 31.6101C30.238 32.1215 31.0816 32.1068 31.5929 31.5774C32.0916 31.0609 32.0916 30.2422 31.5929 29.7258L17.8759 16.0087Z" fill-opacity="0.15"/>
    </g>
  </symbol>
  <symbol id="heart" viewBox="0 0 32 29">
    <g>
      <path d="M29.6653 2.77712C28.0869 0.98625 25.8974 0 23.5 0C20.1283 0 17.9936 2.01375 16.7966 3.70312C16.486 4.1415 16.2218 4.58106 16 4.99469C15.7782 4.58106 15.5141 4.1415 15.2034 3.70312C14.0064 2.01375 11.8717 0 8.5 0C6.10262 0 3.91306 0.986313 2.33469 2.77719C0.829188 4.48556 0 6.77356 0 9.21969C0 11.8824 1.03956 14.3589 3.27156 17.0134C5.26638 19.3859 8.13619 21.8314 11.4594 24.6632C12.6977 25.7185 13.9782 26.8098 15.3416 28.0026L15.3825 28.0384C15.5592 28.1932 15.7796 28.2705 16 28.2705C16.2204 28.2705 16.4408 28.1931 16.6175 28.0384L16.6584 28.0026C18.0217 26.8098 19.3023 25.7186 20.5408 24.6631C23.8638 21.8315 26.7336 19.386 28.7284 17.0134C30.9604 14.3589 32 11.8824 32 9.21969C32 6.77356 31.1708 4.48556 29.6653 2.77712ZM19.3246 23.2361C18.2571 24.1458 17.1584 25.0819 16 26.089C14.8416 25.0821 13.7429 24.1458 12.6753 23.236C6.17156 17.6939 1.875 14.0326 1.875 9.21969C1.875 7.23031 2.53781 5.38256 3.74137 4.01688C4.95875 2.63569 6.64869 1.875 8.5 1.875C11.0706 1.875 12.7323 3.45863 13.6735 4.78713C14.5178 5.97863 14.9584 7.17975 15.1086 7.64081C15.2343 8.02675 15.5941 8.28794 16 8.28794C16.4059 8.28794 16.7657 8.02675 16.8914 7.64081C17.0416 7.17975 17.4822 5.97863 18.3265 4.78706C19.2677 3.45863 20.9294 1.875 23.5 1.875C25.3513 1.875 27.0413 2.63569 28.2586 4.01688C29.4622 5.38256 30.125 7.23031 30.125 9.21969C30.125 14.0326 25.8284 17.6939 19.3246 23.2361Z"/>
    </g>
  </symbol>
  <symbol id="minus" viewBox="0 0 16 2">
    <g>
      <path d="M15.3333 0H0.666679C0.298476 0 0 0.298479 0 0.666686C0 1.03489 0.298476 1.33337 0.666679 1.33337H15.3333C15.7015 1.33337 16 1.03489 16 0.666686C16 0.298479 15.7015 0 15.3333 0Z"/>
    </g>
  </symbol>
  <symbol id="plus" viewBox="0 0 16 16">
    <g>
      <path d="M15.2 7.2H8.80005V0.799951C8.80005 0.358447 8.4416 0 7.99995 0C7.55845 0 7.2 0.358447 7.2 0.799951V7.2H0.799951C0.358447 7.2 0 7.55845 0 7.99995C0 8.4416 0.358447 8.80005 0.799951 8.80005H7.2V15.2C7.2 15.6416 7.55845 16 7.99995 16C8.4416 16 8.80005 15.6416 8.80005 15.2V8.80005H15.2C15.6416 8.80005 16 8.4416 16 7.99995C16 7.55845 15.6416 7.2 15.2 7.2Z"/>
    </g>
  </symbol>
  <symbol id="phone" viewBox="0 0 23 22">
    <g>
      <path d="M21.4628 16.5169L18.2687 13.3215C17.8398 12.8948 17.2654 12.6596 16.6516 12.6596C16.0129 12.6596 15.4098 12.9111 14.9538 13.3674L13.7104 14.6104C12.7443 14.0734 11.4602 13.3349 10.1271 12.0017C8.79544 10.6696 8.05677 9.38927 7.51703 8.41794L8.76153 7.17435C9.68679 6.24717 9.70571 4.75968 8.80385 3.85865L5.61047 0.665171C5.18271 0.236229 4.60832 0 3.99297 0C3.36848 0 2.77773 0.240434 2.32438 0.678061C2.05012 0.898931 0.673792 2.1139 0.160835 4.61954C-0.557359 8.12668 1.09277 11.5011 5.85648 16.2667C11.1779 21.5865 15.7209 22 16.9865 22C17.25 22 17.4089 21.9837 17.4513 21.9788C19.9331 21.6879 20.8217 20.5857 21.4705 19.781C22.3112 18.738 22.3083 17.3656 21.4628 16.5169ZM20.4029 18.9202C19.7931 19.6767 19.2171 20.391 17.2918 20.6167C17.2908 20.6168 17.1855 20.6286 16.9865 20.6286C15.8542 20.6286 11.7748 20.2441 6.82617 15.297C2.43317 10.9022 0.89128 7.88834 1.50425 4.89453C1.95166 2.70904 3.13948 1.78013 3.18564 1.74484L3.2266 1.71458L3.26253 1.67856C3.46082 1.48045 3.72018 1.3713 3.99288 1.3713C4.24118 1.3713 4.47083 1.46436 4.64013 1.63422L7.83425 4.82843C8.20176 5.19557 8.1822 5.81339 7.79119 6.20521L6.38379 7.61143L6.36066 7.63566C5.99388 8.03964 6.03703 8.5856 6.23907 8.94113C6.82205 9.99319 7.62061 11.4341 9.15719 12.9711C10.6887 14.5026 12.1274 15.3005 13.1766 15.8824C13.2816 15.9413 13.4984 16.0402 13.7699 16.0402C14.0904 16.0402 14.3847 15.9046 14.6025 15.6573L15.9234 14.3368C16.1206 14.1395 16.3791 14.0308 16.6514 14.0308C16.9003 14.0308 17.1311 14.1242 17.3 14.2922L20.492 17.4855C20.8974 17.8924 20.73 18.5145 20.4029 18.9202Z"/>
      <path d="M13.3882 3.35972C14.5663 3.4953 15.9535 4.20892 16.9222 5.1777C17.8999 6.15543 18.6153 7.55672 18.7445 8.74764C18.7826 9.09897 19.0797 9.35933 19.4253 9.35933C19.45 9.35933 19.475 9.35796 19.5001 9.35531C19.8765 9.31444 20.1486 8.97619 20.1077 8.59972C19.9444 7.09431 19.0952 5.41155 17.8919 4.2081C16.6998 3.01589 15.0342 2.16889 13.545 1.99748C13.169 1.95387 12.8288 2.22411 12.7855 2.60021C12.7421 2.97631 13.0119 3.31639 13.3882 3.35972Z"/>
      <path d="M12.7476 6.23198C13.3848 6.30539 14.2666 6.77803 14.8443 7.35571C15.4269 7.93842 15.9005 8.82867 15.9702 9.47272C16.0084 9.82414 16.3055 10.0845 16.6511 10.0845C16.6757 10.0845 16.7007 10.0831 16.7257 10.0805C17.1022 10.0396 17.3744 9.70136 17.3335 9.3249C17.2143 8.2253 16.4843 7.0565 15.8138 6.38602C15.1494 5.72149 13.992 4.99498 12.9044 4.86964C12.5278 4.82585 12.1881 5.09618 12.1448 5.47228C12.1015 5.84847 12.3714 6.18865 12.7476 6.23198Z"/>
    </g>
  </symbol>
  <symbol id="user" viewBox="0 0 25 32">
    <g>
      <path d="M22.6785 19.9427C21.6076 18.3799 20.213 17.0955 18.5934 16.1643C20.4901 14.467 21.686 12.0018 21.686 9.26225C21.6861 4.15505 17.5311 0 12.4238 0C7.31656 0 3.1615 4.15505 3.1615 9.26225C3.1615 12.0018 4.35743 14.4669 6.25416 16.1643C4.63447 17.0956 3.23995 18.3799 2.16902 19.9427C0.750061 22.0134 0 24.4315 0 26.9359V32H24.8476V26.9359C24.8477 24.4315 24.0976 22.0133 22.6785 19.9427ZM5.10099 9.26225C5.10099 5.22444 8.38604 1.93939 12.4239 1.93939C16.4617 1.93939 19.7467 5.22444 19.7467 9.26225C19.7467 13.3002 16.4617 16.5852 12.4239 16.5852C8.38604 16.5852 5.10099 13.3002 5.10099 9.26225ZM1.93939 30.0606V26.9359C1.93939 22.8273 4.31922 19.1418 8.04034 17.4197C9.34604 18.1242 10.839 18.5245 12.4238 18.5245C14.0085 18.5245 15.5015 18.1241 16.8072 17.4197C20.5284 19.1417 22.9081 22.8273 22.9081 26.9359V30.0606H1.93939Z"/>
    </g>
  </symbol>
  <symbol id="search-btn" viewBox="0 0 24 24">
    <g>
      <path d="M9.89064 19.7662C4.43691 19.7662 0 15.3326 0 9.88308C0 4.43352 4.43691 0 9.89064 0C15.3444 0 19.7813 4.43352 19.7813 9.88308C19.7813 15.3326 15.3444 19.7662 9.89064 19.7662ZM9.89064 1.87357C5.47079 1.87357 1.875 5.46661 1.875 9.88308C1.875 14.2995 5.47079 17.8926 9.89064 17.8926C14.3105 17.8926 17.9063 14.2995 17.9063 9.88308C17.9063 5.46661 14.3105 1.87357 9.89064 1.87357ZM23.7255 23.7257C24.0916 23.3598 24.0916 22.7666 23.7255 22.4008L19.5302 18.2087C19.164 17.8428 18.5704 17.8428 18.2043 18.2087C17.8382 18.5746 17.8382 19.1677 18.2043 19.5336L22.3996 23.7257C22.5827 23.9086 22.8226 24 23.0626 24C23.3025 24 23.5424 23.9086 23.7255 23.7257Z"/>
    </g>
  </symbol>
  <symbol id="star" viewBox="0 0 16 16">
    <g>
      <path d="M0.0229731 5.79566C0.0780973 5.62595 0.224753 5.50226 0.401315 5.47663L5.36139 4.75586L7.57966 0.26128C7.6586 0.101281 7.82157 0 7.99997 0C8.17841 0 8.34135 0.101281 8.42032 0.26128L10.6387 4.75586L15.5987 5.47663C15.7752 5.50226 15.9219 5.62595 15.977 5.79563C16.0322 5.96535 15.9862 6.15163 15.8584 6.27616L12.2694 9.77471L13.1165 14.7148C13.1467 14.8907 13.0744 15.0683 12.9301 15.1733C12.8484 15.2326 12.7517 15.2628 12.6545 15.2628C12.5799 15.2628 12.505 15.245 12.4365 15.2089L8 12.8765L3.56374 15.2089C3.40577 15.2919 3.21443 15.2781 3.07009 15.1732C2.92574 15.0683 2.8534 14.8906 2.88356 14.7147L3.73096 9.77471L0.141566 6.27613C0.0138168 6.15163 -0.0322151 5.96535 0.0229731 5.79566Z"/>
    </g>
  </symbol>
  <symbol id="nav" viewBox="0 0 25 17">
    <g>
      <rect width="24.8963" height="1"/>
      <rect y="8" width="19.917" height="1"/>
      <rect y="16" width="24.8963" height="1"/>
    </g>
  </symbol>
  <symbol id="facebook" viewBox="0 0 32 32">
    <g>
      <path d="M21.3293 5.31333H24.2507V0.225333C23.7467 0.156 22.0133 0 19.9947 0C15.7827 0 12.8973 2.64933 12.8973 7.51867V12H8.24933V17.688H12.8973V32H18.596V17.6893H23.056L23.764 12.0013H18.5947V8.08267C18.596 6.43867 19.0387 5.31333 21.3293 5.31333Z"/>
    </g>
  </symbol>
  <symbol id="youtube" viewBox="0 0 32 32">
    <g>
      <path d="M31.292 7.90543L31.332 8.16677C30.9453 6.79477 29.9013 5.7361 28.5747 5.35077L28.5467 5.3441C26.052 4.66677 16.0133 4.66677 16.0133 4.66677C16.0133 4.66677 6 4.65343 3.48 5.3441C2.128 5.7361 1.08266 6.79477 0.702662 8.13877L0.695996 8.16677C-0.236004 13.0348 -0.242671 18.8841 0.737329 24.0961L0.695996 23.8321C1.08266 25.2041 2.12666 26.2628 3.45333 26.6481L3.48133 26.6548C5.97333 27.3334 16.0147 27.3334 16.0147 27.3334C16.0147 27.3334 26.0267 27.3334 28.548 26.6548C29.9013 26.2628 30.9467 25.2041 31.3267 23.8601L31.3333 23.8321C31.7573 21.5681 32 18.9628 32 16.3014C32 16.2041 32 16.1054 31.9987 16.0068C32 15.9161 32 15.8081 32 15.7001C32 13.0374 31.7573 10.4321 31.292 7.90543V7.90543ZM12.8107 20.8681V11.1441L21.1653 16.0134L12.8107 20.8681Z"/>
    </g>
  </symbol>
  <symbol id="telegram" viewBox="0 0 32 32">
    <g>
      <path d="M12.556 20.2414L12.0267 27.6867C12.784 27.6867 13.112 27.3614 13.5053 26.9707L17.056 23.5774L24.4133 28.9654C25.7626 29.7174 26.7133 29.3214 27.0773 27.7241L31.9066 5.09474L31.908 5.09341C32.336 3.09874 31.1866 2.31874 29.872 2.80807L1.48533 13.6761C-0.452007 14.4281 -0.422674 15.5081 1.15599 15.9974L8.41332 18.2547L25.2706 7.70674C26.064 7.18141 26.7853 7.47207 26.192 7.99741L12.556 20.2414Z"/>
    </g>
  </symbol>
  <symbol id="instagram" viewBox="0 0 32 32">
    <g>
      <path d="M16.0053 7.78406C11.468 7.78406 7.79468 11.4614 7.79468 15.9947C7.79468 20.5321 11.472 24.2054 16.0053 24.2054C20.5427 24.2054 24.216 20.5281 24.216 15.9947C24.216 11.4574 20.5387 7.78406 16.0053 7.78406ZM16.0053 21.3241C13.06 21.3241 10.676 18.9387 10.676 15.9947C10.676 13.0507 13.0613 10.6654 16.0053 10.6654C18.9493 10.6654 21.3347 13.0507 21.3347 15.9947C21.336 18.9387 18.9507 21.3241 16.0053 21.3241Z"/>
      <path d="M22.5973 0.101248C19.6533 -0.0360854 12.3613 -0.0294187 9.41467 0.101248C6.82533 0.222581 4.54133 0.847914 2.7 2.68925C-0.377336 5.76658 0.0159978 9.91325 0.0159978 15.9946C0.0159978 22.2186 -0.330669 26.2692 2.7 29.2999C5.78933 32.3879 9.996 31.9839 16.0053 31.9839C22.1707 31.9839 24.2987 31.9879 26.4787 31.1439C29.4427 29.9932 31.68 27.3439 31.8987 22.5852C32.0373 19.6399 32.0293 12.3492 31.8987 9.40258C31.6347 3.78525 28.62 0.378581 22.5973 0.101248ZM27.2573 27.2639C25.24 29.2812 22.4413 29.1012 15.9667 29.1012C9.3 29.1012 6.62666 29.1999 4.676 27.2439C2.42933 25.0079 2.836 21.4172 2.836 15.9732C2.836 8.60658 2.08 3.30125 9.47333 2.92258C11.172 2.86258 11.672 2.84258 15.948 2.84258L16.008 2.88258C23.1133 2.88258 28.688 2.13858 29.0227 9.53058C29.0987 11.2172 29.116 11.7239 29.116 15.9932C29.1147 22.5826 29.24 25.2719 27.2573 27.2639Z"/>
      <path d="M24.5413 9.37859C25.601 9.37859 26.46 8.51957 26.46 7.45992C26.46 6.40027 25.601 5.54126 24.5413 5.54126C23.4817 5.54126 22.6227 6.40027 22.6227 7.45992C22.6227 8.51957 23.4817 9.37859 24.5413 9.37859Z"/>
    </g>
  </symbol>
  <symbol id="visa" viewBox="0 0 93 29">
    <g>
      <path d="M37.1087 0.473877L32.3987 28.0548H39.9317L44.6456 0.473877H37.1087Z"/>
      <path d="M26.0828 0.504823L18.7047 19.3142L17.9181 16.4742C16.463 13.0522 12.3323 8.13763 7.48273 5.04043L14.2291 28.0414L22.2001 28.0278L34.0634 0.499023L26.0828 0.504823Z"/>
      <path d="M15.0582 2.47853C14.6204 0.79846 13.3513 0.297726 11.7761 0.237793H0.096875L0 0.78686C9.08881 2.987 15.1028 8.2882 17.5983 14.6624L15.0582 2.47853Z"/>
      <path d="M59.9133 5.76133C62.3778 5.72267 64.1641 6.26013 65.5514 6.81693L66.2314 7.13593L67.2506 1.15806C65.7587 0.599331 63.4201 0 60.5023 0C53.0584 0 47.8116 3.741 47.7709 9.10213C47.7225 13.0635 51.5084 15.2753 54.3681 16.5957C57.3034 17.9491 58.2877 18.8094 58.2741 20.0177C58.2509 21.8641 55.9336 22.7109 53.7694 22.7109C50.7528 22.7109 49.1504 22.2952 46.6763 21.2667L45.7056 20.8259L44.6458 26.999C46.4089 27.7704 49.6619 28.4335 53.039 28.4683C60.9576 28.4683 66.1036 24.7718 66.1578 19.0433C66.1908 15.9094 64.1816 13.5179 59.828 11.5555C57.193 10.2757 55.581 9.425 55.5965 8.13353C55.5965 6.98707 56.9644 5.76133 59.9133 5.76133Z"/>
      <path d="M86.583 0.504639H80.7628C78.9551 0.504639 77.6105 0.995705 76.8161 2.79371L65.6309 28.0701H73.5417C73.5417 28.0701 74.8321 24.6713 75.1247 23.927C75.9907 23.927 83.6768 23.9386 84.7715 23.9386C84.9962 24.9014 85.6899 28.0701 85.6899 28.0701H92.6784L86.583 0.504639ZM77.2927 18.2816C77.9127 16.6982 80.2939 10.5734 80.2939 10.5734C80.2532 10.6488 80.9081 8.97845 81.2975 7.94025L81.8052 10.3182C81.8052 10.3182 83.2486 16.9032 83.5509 18.2816H77.2927Z"/>
    </g>
  </symbol>
  <symbol id="mastercard" viewBox="0 0 49 29">
    <g>
      <path d="M33.933 4.62198e-07C30.192 0.00100046 26.782 1.419 24.212 3.748C21.64 1.422 18.232 0.00300072 14.495 0.00300072C14.464 0.00300072 14.432 0.00300072 14.402 0.00300072C6.444 0.0550007 0 6.529 0 14.498C0 22.499 6.494 28.992 14.494 28.992C18.231 28.992 21.639 27.575 24.21 25.247C23.673 24.762 23.187 24.225 22.728 23.663H25.721C25.27 24.216 24.778 24.734 24.249 25.216H24.247C24.235 25.229 24.222 25.237 24.21 25.248C26.783 27.578 30.195 28.998 33.938 28.997C41.943 28.994 48.43 22.502 48.428 14.498C48.428 14.495 48.428 14.493 48.428 14.491C48.429 6.487 41.938 -0.00199954 33.933 4.62198e-07ZM22.894 5.245H25.649C26.055 5.737 26.432 6.255 26.774 6.797H21.859C22.176 6.279 22.524 5.746 22.894 5.245ZM21.003 8.319H27.61C27.845 8.821 28.053 9.34 28.235 9.872H20.22C20.3 9.722 20.58 9.118 21.003 8.319ZM5.917 18.19L6.796 12.648L4.813 18.19H3.75L3.612 12.648L2.673 18.19H1.184L2.418 10.84H4.67L4.749 15.35L6.27 10.84H8.713L7.496 18.19H5.917ZM11.182 18.178L11.233 17.591C11.209 17.594 10.739 18.3 9.65 18.3C9.08 18.3 8.16 17.989 8.16 16.637C8.16 14.918 9.562 14.348 10.897 14.348C11.107 14.348 11.56 14.386 11.56 14.386C11.56 14.386 11.611 14.281 11.611 13.997C11.611 13.53 11.191 13.466 10.616 13.466C9.603 13.466 8.934 13.737 8.934 13.737L9.158 12.407C9.158 12.407 9.97 12.067 11.027 12.067C11.574 12.067 13.147 12.125 13.147 13.928L12.541 18.178H11.182ZM16.925 16.306C16.925 18.357 14.938 18.269 14.591 18.269C13.296 18.269 12.896 18.09 12.859 18.08L13.065 16.73C13.067 16.718 13.715 16.965 14.436 16.965C14.852 16.965 15.392 16.924 15.392 16.427C15.392 15.683 13.46 15.861 13.46 14.094C13.46 12.535 14.618 12.079 15.76 12.079C16.642 12.079 17.184 12.2 17.184 12.2L16.989 13.562C16.989 13.562 16.152 13.493 15.935 13.493C15.386 13.493 15.087 13.613 15.087 13.997C15.086 14.769 16.925 14.391 16.925 16.306ZM19.311 16.844C19.448 16.844 19.603 16.797 19.709 16.797L19.516 18.108C19.361 18.151 18.922 18.307 18.359 18.311C17.64 18.317 17.129 17.915 17.129 17.003C17.129 16.391 18.006 11.348 18.04 11.315H19.583L19.426 12.217H20.196L19.999 13.67H19.182L18.748 16.347C18.715 16.56 18.774 16.844 19.311 16.844ZM22.705 12.047C24.399 12.047 24.906 13.287 24.906 14.304C24.906 14.711 24.702 15.711 24.702 15.711H21.566C21.566 15.711 21.276 16.946 22.933 16.946C23.71 16.946 24.572 16.566 24.572 16.566L24.3 18.053C24.3 18.053 23.802 18.307 22.67 18.307C21.443 18.307 20.004 17.788 20.004 15.608C20.005 13.719 21.153 12.047 22.705 12.047ZM26.792 22.17H21.65C21.337 21.67 21.045 21.157 20.794 20.618H27.637C27.385 21.154 27.103 21.672 26.792 22.17ZM26.447 18.201H24.863L25.826 12.219H27.263L27.125 13.086C27.125 13.086 27.637 12.143 28.328 12.143C28.529 12.143 28.626 12.163 28.626 12.163C28.421 12.581 28.24 12.964 28.052 13.953C26.98 13.573 26.898 15.646 26.447 18.201ZM32.482 18.108C32.482 18.108 31.652 18.32 31.132 18.32C29.29 18.32 28.355 17.049 28.355 15.124C28.355 12.221 30.088 10.675 31.869 10.675C32.674 10.675 33.607 11.053 33.607 11.053L33.355 12.688C33.355 12.688 32.724 12.247 31.939 12.247C30.889 12.247 29.947 13.249 29.947 15.07C29.947 15.967 30.386 16.803 31.482 16.803C32.003 16.803 32.758 16.424 32.758 16.424L32.482 18.108ZM36.197 18.181L36.249 17.59C36.224 17.593 35.754 18.299 34.666 18.299C34.096 18.299 33.176 17.988 33.176 16.636C33.176 14.917 34.578 14.347 35.912 14.347C36.122 14.347 36.576 14.385 36.576 14.385C36.576 14.385 36.628 14.281 36.628 13.997C36.628 13.53 36.208 13.466 35.632 13.466C34.619 13.466 33.951 13.737 33.951 13.737L34.175 12.407C34.175 12.407 34.987 12.067 36.045 12.067C36.591 12.067 38.165 12.125 38.164 13.928L37.558 18.178C37.557 18.181 36.197 18.181 36.197 18.181ZM39.404 18.201H37.82L38.783 12.219H40.221L40.083 13.086C40.083 13.086 40.596 12.143 41.287 12.143C41.488 12.143 41.584 12.163 41.584 12.163C41.38 12.581 41.197 12.964 41.01 13.953C39.937 13.573 39.855 15.646 39.404 18.201ZM44.133 18.185L44.2 17.634C44.2 17.634 43.688 18.28 42.762 18.28C41.479 18.28 40.85 17.041 40.85 15.775C40.85 13.817 42.028 12.11 43.442 12.11C44.352 12.112 44.933 12.915 44.933 12.915L45.267 10.85L46.814 10.847L45.634 18.185H44.133ZM47.185 17.978C47.144 18.052 47.086 18.109 47.012 18.153C46.939 18.194 46.861 18.215 46.779 18.215C46.699 18.215 46.622 18.194 46.548 18.153C46.474 18.109 46.416 18.052 46.375 17.978C46.333 17.903 46.313 17.827 46.313 17.746C46.313 17.664 46.334 17.586 46.375 17.512C46.416 17.438 46.477 17.378 46.55 17.338C46.626 17.297 46.701 17.276 46.779 17.276C46.859 17.276 46.935 17.297 47.009 17.338C47.085 17.379 47.143 17.436 47.185 17.512C47.228 17.587 47.247 17.665 47.247 17.746C47.247 17.827 47.227 17.904 47.185 17.978Z"/>
      <path d="M47.0611 22.4009C47.0511 22.3939 47.0421 22.3829 47.0261 22.3769C47.0101 22.3709 46.985 22.3679 46.946 22.3679H46.8521V22.5179H46.952C46.999 22.5179 47.03 22.5139 47.048 22.4969C47.065 22.4829 47.0731 22.4659 47.0731 22.4419C47.0731 22.4259 47.0691 22.4149 47.0611 22.4009Z"/>
      <path d="M11.0221 15.4949C9.89111 15.4949 9.66211 16.0029 9.66211 16.4259C9.66211 16.6439 9.78711 17.0079 10.2661 17.0079C11.1951 17.0079 11.3881 15.7899 11.3581 15.5309C11.3141 15.5219 11.2861 15.4959 11.0221 15.4949Z"/>
      <path d="M22.711 13.428C21.87 13.428 21.708 14.385 21.708 14.486H23.421C23.421 14.409 23.582 13.428 22.711 13.428Z"/>
      <path d="M43.7089 13.595C43.0299 13.595 42.4929 14.383 42.4939 15.58C42.4939 16.31 42.7539 16.778 43.3099 16.778C44.1459 16.778 44.5489 15.687 44.5489 14.874C44.5489 13.977 44.2639 13.595 43.7089 13.595Z"/>
      <path d="M47.1149 17.552C47.0799 17.49 47.0309 17.442 46.9689 17.407C46.9069 17.372 46.8439 17.355 46.7779 17.355C46.7139 17.355 46.6489 17.373 46.5869 17.407C46.5249 17.439 46.4759 17.489 46.4409 17.552C46.4059 17.615 46.3879 17.682 46.3879 17.747C46.3879 17.814 46.4059 17.88 46.4389 17.941C46.4759 18.003 46.5229 18.05 46.5849 18.087C46.6469 18.121 46.7109 18.141 46.7779 18.141C46.8449 18.141 46.9109 18.121 46.9709 18.087C47.0329 18.052 47.0809 18.004 47.1169 17.941C47.1519 17.879 47.1679 17.814 47.1679 17.747C47.1679 17.681 47.1499 17.615 47.1149 17.552ZM46.8979 18.004L46.8529 17.926C46.8179 17.863 46.7899 17.823 46.7689 17.808C46.7519 17.795 46.7319 17.789 46.7029 17.789H46.6569V18.003H46.5729V17.499H46.7479C46.8069 17.499 46.8509 17.504 46.8759 17.515C46.9009 17.524 46.9229 17.541 46.9399 17.563C46.9569 17.585 46.9629 17.61 46.9629 17.637C46.9629 17.674 46.9489 17.705 46.9229 17.733C46.8969 17.762 46.8609 17.774 46.8189 17.779C46.8389 17.787 46.8519 17.796 46.8619 17.805C46.8829 17.826 46.9069 17.856 46.9359 17.904L46.9979 18.004H46.8979Z"/>
      <path d="M36.039 15.4949C34.908 15.4949 34.679 16.0029 34.679 16.4259C34.679 16.6439 34.803 17.0079 35.283 17.0079C36.212 17.0079 36.404 15.7899 36.375 15.5309C36.33 15.5219 36.302 15.4959 36.039 15.4949Z"/>
      <path d="M46.864 17.6019C46.856 17.5919 46.845 17.5839 46.83 17.5769C46.813 17.5719 46.788 17.5669 46.748 17.5669V17.5679H46.657V17.7199H46.756C46.803 17.7199 46.834 17.7139 46.853 17.6989C46.868 17.6839 46.877 17.6649 46.877 17.6429C46.877 17.6259 46.873 17.6159 46.864 17.6019Z"/>
    </g>
  </symbol>
</svg>
