<svg width="120" height="120" viewBox="0 0 120 120" fill="none" xmlns="http://www.w3.org/2000/svg">
<path opacity="0.2" d="M115.297 118.134C115.297 117.11 92.3482 116.268 64.0735 116.268C35.7989 116.268 12.8503 117.11 12.8503 118.134C12.8503 119.157 35.7989 120 64.0735 120C92.414 120 115.297 119.157 115.297 118.134Z" fill="#5D5D5D"/>
<path d="M64.7967 23.6196C87.0877 23.6196 105.17 40.1747 105.17 60.5825V97.5455H64.7967C42.5057 97.5455 24.4231 80.9904 24.4231 60.5825V23.6196H64.7967Z" fill="#63A60F"/>
<path opacity="0.3" d="M99.3838 41.5593C96.0303 45.1111 93.9919 49.7466 93.9919 54.8034C93.9919 62.3284 98.4633 68.8902 105.105 72.442V60.5826C105.105 53.6596 103.066 47.1579 99.3838 41.5593Z" fill="#63A60F"/>
<path d="M83.5369 27.8938C77.2244 31.2048 73.0161 37.4054 73.0161 44.5692C73.0161 55.1645 82.4191 63.7731 93.992 63.7731C98.0688 63.7731 101.883 62.6895 105.105 60.8233V60.5825C105.105 46.3752 96.3592 34.0342 83.5369 27.8938Z" fill="#63A60F"/>
<path opacity="0.5" d="M51.8429 30.7817C41.4536 30.7817 31.9192 34.0928 24.4231 39.6914V60.641C24.4231 81.0489 42.5057 97.604 64.7967 97.604H84.1287C91.1645 90.5003 95.4385 81.1091 95.4385 70.7547C95.4385 48.6612 75.9093 30.7817 51.8429 30.7817Z" fill="#EFF6E7"/>
<path d="M105.105 97.4851L64.7967 97.5453C42.5057 97.5453 24.4231 80.9903 24.4231 60.5824V23.6797L105.105 97.4851Z" fill="#63A60F"/>
<path opacity="0.3" d="M30.6699 36.8636C30.6699 64.9169 55.5253 87.6123 86.1014 87.6123C88.7316 87.6123 91.2961 87.4317 93.7948 87.1307L31.196 29.8804C30.8672 32.168 30.6699 34.5158 30.6699 36.8636Z" fill="#63A60F"/>
<path opacity="0.3" d="M105.105 97.5453L24.752 23.9807C34.2207 36.9238 45.136 50.0474 56.2486 60.8834C64.9283 69.3114 89.981 88.1541 105.105 97.5453Z" fill="#63A60F"/>
<path opacity="0.3" d="M50.7909 47.7598L24.4231 23.6797V60.6426C24.4231 76.9569 35.996 90.8029 51.9745 95.6791C45.1359 89.3581 40.9276 80.6893 40.9276 71.1776C40.9276 62.1476 44.6757 53.9604 50.7909 47.7598Z" fill="#63A60F"/>
<path opacity="0.3" d="M86.6932 80.6895C79.8546 88.3349 69.4653 93.2713 57.8267 93.2713C50.0676 93.2713 42.8345 91.1041 36.8508 87.3717C44.0839 93.6927 53.8814 97.6057 64.731 97.6057H105.105V97.5455L86.6932 80.6895Z" fill="#63A60F"/>
<path opacity="0.3" d="M26.7903 45.7732C26.7903 39.8133 27.9081 34.0341 30.0123 28.7365L24.4231 23.6797V60.6426C24.4231 81.0505 42.5057 97.6055 64.7967 97.6055H105.17V97.5453L101.159 93.8731C95.3071 95.7995 89.0603 96.8229 82.4848 96.8229C51.7115 96.7627 26.7903 73.9469 26.7903 45.7732Z" fill="#EFF6E7"/>
<path d="M104.447 104.709C107.275 103.987 110.234 105.552 110.957 108.141C111.746 110.729 110.036 113.438 107.143 114.1C104.316 114.823 101.357 113.258 100.633 110.669C99.9101 108.08 101.62 105.432 104.447 104.709ZM103.395 101.037C98.332 102.301 95.3072 106.997 96.6881 111.632C98.0032 116.268 103.198 119.037 108.261 117.773C113.324 116.508 116.349 111.753 114.968 107.177C113.653 102.542 108.458 99.833 103.395 101.037Z" fill="#63A60F"/>
<path opacity="0.5" d="M110.101 112.354C109.378 113.197 108.392 113.859 107.208 114.16C104.381 114.882 101.422 113.317 100.698 110.728C100.172 108.802 100.896 106.875 102.474 105.732C101.685 104.708 101.027 103.564 100.37 102.421C97.2134 104.467 95.6353 108.14 96.6874 111.752C98.0025 116.387 103.197 119.156 108.26 117.892C110.627 117.29 112.534 115.966 113.784 114.22C112.534 113.618 111.285 113.016 110.101 112.354Z" fill="#63A60F"/>
<path d="M26.3293 104.709C29.1568 104.047 32.1158 105.612 32.8391 108.201C33.5624 110.789 31.8528 113.498 29.0253 114.161C26.1978 114.823 23.2389 113.258 22.5156 110.669C21.7923 108.08 23.5019 105.371 26.3293 104.709ZM25.2773 101.037C20.2141 102.241 17.1894 106.997 18.5045 111.632C19.8196 116.268 25.0142 119.037 30.0774 117.833C35.1405 116.629 38.1653 111.873 36.9159 107.238C35.535 102.602 30.3404 99.8331 25.2773 101.037Z" fill="#63A60F"/>
<path opacity="0.5" d="M31.9195 112.414C31.1962 113.257 30.2098 113.919 29.0262 114.16C26.1988 114.822 23.2398 113.257 22.5165 110.668C21.9905 108.742 22.7795 106.815 24.2919 105.672C23.5028 104.648 22.8453 103.504 22.2535 102.361C19.0972 104.347 17.4534 108.019 18.5054 111.631C19.8205 116.267 25.0152 119.036 30.0783 117.832C32.4455 117.29 34.4182 115.906 35.6017 114.16C34.2866 113.678 33.1031 113.076 31.9195 112.414Z" fill="#63A60F"/>
<path d="M26.9876 21.0911C25.7383 21.0911 24.6862 20.1279 24.6862 18.9841C24.6862 14.0477 23.1739 10.3153 20.2806 7.84706C15.612 3.81364 8.57623 4.23505 8.51048 4.23505C7.26113 4.35545 6.14329 3.45244 6.01178 2.30864C5.88027 1.16484 6.8666 0.141433 8.11595 0.0210325C8.51048 0.0210325 17.1901 -0.580969 23.3711 4.65645C27.3164 7.96746 29.2891 12.7835 29.2891 18.9239C29.2891 20.1279 28.3027 21.0911 26.9876 21.0911Z" fill="#63A60F"/>
</svg>
