<svg width="152" height="152" viewBox="0 0 152 152" fill="none" xmlns="http://www.w3.org/2000/svg">
<path opacity="0.2" d="M146.043 149.636C146.043 148.34 116.974 147.272 81.1598 147.272C45.3452 147.272 16.2771 148.34 16.2771 149.636C16.2771 150.932 45.3452 152 81.1598 152C117.058 152 146.043 150.932 146.043 149.636Z" fill="#5D5D5D"/>
<path d="M82.0758 29.9182C110.311 29.9182 133.216 50.8879 133.216 76.7379V123.558H82.0758C53.8406 123.558 30.9359 102.588 30.9359 76.7379V29.9182H82.0758Z" fill="#63A60F"/>
<path opacity="0.3" d="M125.886 52.6418C121.638 57.1408 119.056 63.0123 119.056 69.4176C119.056 78.9493 124.72 87.261 133.132 91.7599V76.738C133.132 67.9688 130.55 59.7334 125.886 52.6418Z" fill="#63A60F"/>
<path d="M105.813 35.3322C97.8176 39.5261 92.4871 47.3802 92.4871 56.4544C92.4871 69.875 104.397 80.7793 119.057 80.7793C124.22 80.7793 129.051 79.4067 133.132 77.0428V76.7378C133.132 58.742 122.055 43.11 105.813 35.3322Z" fill="#63A60F"/>
<path opacity="0.5" d="M65.6677 38.9902C52.5079 38.9902 40.4309 43.1842 30.9359 50.2758V76.812C30.9359 102.662 53.8406 123.632 82.0758 123.632H106.563C115.475 114.634 120.889 102.738 120.889 89.6226C120.889 61.6375 96.1517 38.9902 65.6677 38.9902Z" fill="#EFF6E7"/>
<path d="M133.132 123.481L82.0758 123.557C53.8406 123.557 30.9359 102.588 30.9359 76.7377V29.9943L133.132 123.481Z" fill="#63A60F"/>
<path opacity="0.3" d="M38.8486 46.6939C38.8486 82.228 70.3321 110.976 109.062 110.976C112.393 110.976 115.642 110.747 118.807 110.366L39.5149 37.8484C39.0984 40.7461 38.8486 43.72 38.8486 46.6939Z" fill="#63A60F"/>
<path opacity="0.3" d="M133.133 123.557L31.3525 30.3755C43.3462 46.7701 57.1723 63.3933 71.2483 77.119C82.2425 87.7945 113.976 111.662 133.133 123.557Z" fill="#63A60F"/>
<path opacity="0.3" d="M64.3351 60.4957L30.9359 29.9943V76.814C30.9359 97.4787 45.5949 115.017 65.8343 121.194C57.1722 113.187 51.8416 102.206 51.8416 90.1583C51.8416 78.7203 56.5891 68.3498 64.3351 60.4957Z" fill="#63A60F"/>
<path opacity="0.3" d="M109.811 102.207C101.149 111.891 87.9894 118.144 73.2471 118.144C63.4189 118.144 54.257 115.398 46.6777 110.671C55.8395 118.677 68.2497 123.634 81.9925 123.634H133.132V123.558L109.811 102.207Z" fill="#63A60F"/>
<path opacity="0.3" d="M33.9343 57.9793C33.9343 50.4302 35.3503 43.1099 38.0155 36.3996L30.9359 29.9943V76.814C30.9359 102.664 53.8406 123.634 82.0758 123.634H133.216V123.557L128.135 118.906C120.722 121.346 112.81 122.642 104.481 122.642C65.5012 122.566 33.9343 93.666 33.9343 57.9793Z" fill="#EFF6E7"/>
<path d="M132.3 132.632C135.881 131.717 139.629 133.699 140.545 136.978C141.545 140.257 139.379 143.688 135.715 144.527C132.133 145.442 128.385 143.46 127.469 140.181C126.553 136.902 128.718 133.547 132.3 132.632ZM130.967 127.98C124.554 129.582 120.723 135.529 122.472 141.401C124.137 147.272 130.717 150.78 137.131 149.179C143.544 147.577 147.375 141.553 145.626 135.758C143.96 129.887 137.38 126.455 130.967 127.98Z" fill="#63A60F"/>
<path opacity="0.5" d="M139.462 142.315C138.546 143.382 137.296 144.221 135.797 144.602C132.216 145.517 128.468 143.535 127.551 140.256C126.885 137.816 127.801 135.376 129.8 133.927C128.801 132.63 127.968 131.182 127.135 129.733C123.137 132.325 121.138 136.977 122.471 141.552C124.136 147.424 130.716 150.931 137.13 149.33C140.128 148.567 142.543 146.89 144.126 144.679C142.543 143.916 140.961 143.153 139.462 142.315Z" fill="#63A60F"/>
<path d="M33.3504 132.632C36.9319 131.793 40.6799 133.776 41.5961 137.054C42.5123 140.333 40.3468 143.765 36.7653 144.604C33.1838 145.442 29.4358 143.46 28.5196 140.181C27.6034 136.902 29.769 133.471 33.3504 132.632ZM32.0178 127.98C25.6045 129.505 21.7732 135.529 23.439 141.401C25.1047 147.272 31.6846 150.78 38.0979 149.255C44.5112 147.73 48.3426 141.706 46.7601 135.834C45.011 129.963 38.4311 126.455 32.0178 127.98Z" fill="#63A60F"/>
<path opacity="0.5" d="M40.4313 142.391C39.5151 143.459 38.2657 144.297 36.7665 144.602C33.1851 145.441 29.437 143.459 28.5208 140.18C27.8545 137.74 28.854 135.299 30.7697 133.851C29.7702 132.554 28.9373 131.106 28.1877 129.657C24.1898 132.173 22.1075 136.825 23.4402 141.4C25.106 147.271 31.6858 150.779 38.0992 149.254C41.0976 148.568 43.5963 146.814 45.0955 144.602C43.4297 143.992 41.9305 143.23 40.4313 142.391Z" fill="#63A60F"/>
<path d="M34.1843 26.7154C32.6018 26.7154 31.2692 25.4953 31.2692 24.0465C31.2692 17.7937 29.3535 13.066 25.6888 9.93961C19.7752 4.83062 10.8632 5.36439 10.7799 5.36439C9.19741 5.5169 7.78148 4.37309 7.6149 2.92428C7.44832 1.47546 8.69767 0.179148 10.2802 0.0266411C10.7799 0.0266411 21.7742 -0.735895 29.6034 5.89817C34.6008 10.0921 37.0995 16.1924 37.0995 23.9703C37.0995 25.4953 35.8501 26.7154 34.1843 26.7154Z" fill="#63A60F"/>
</svg>
