<svg width="16" height="16" viewBox="0 0 16 16" fill="none" xmlns="http://www.w3.org/2000/svg">
<path opacity="0.2" d="M15.3729 15.7511C15.3729 15.6147 12.3131 15.5023 8.54314 15.5023C4.77318 15.5023 1.71338 15.6147 1.71338 15.7511C1.71338 15.8876 4.77318 16 8.54314 16C12.3219 16 15.3729 15.8876 15.3729 15.7511Z" fill="#5D5D5D"/>
<path d="M8.63956 3.14929C11.6117 3.14929 14.0227 5.35663 14.0227 8.07768V13.0061H8.63956C5.66743 13.0061 3.25641 10.7987 3.25641 8.07768V3.14929H8.63956Z" fill="#63A60F"/>
<path opacity="0.3" d="M13.2511 5.54126C12.804 6.01483 12.5322 6.63289 12.5322 7.30713C12.5322 8.31047 13.1284 9.18538 14.0139 9.65895V8.07769C14.0139 7.15462 13.7421 6.28774 13.2511 5.54126Z" fill="#63A60F"/>
<path d="M11.1382 3.71918C10.2966 4.16065 9.73547 4.98739 9.73547 5.94257C9.73547 7.35527 10.9892 8.50309 12.5323 8.50309C13.0758 8.50309 13.5843 8.35861 14.0139 8.10978V8.07767C14.0139 6.18337 12.8479 4.5379 11.1382 3.71918Z" fill="#63A60F"/>
<path opacity="0.5" d="M6.91239 4.10425C5.52715 4.10425 4.25589 4.54572 3.25641 5.2922V8.08549C3.25641 10.8065 5.66743 13.0139 8.63955 13.0139H11.2172C12.1553 12.0667 12.7251 10.8146 12.7251 9.43397C12.7251 6.48818 10.1212 4.10425 6.91239 4.10425Z" fill="#EFF6E7"/>
<path d="M14.0139 12.998L8.63956 13.006C5.66743 13.006 3.25641 10.7987 3.25641 8.07765V3.15729L14.0139 12.998Z" fill="#63A60F"/>
<path opacity="0.3" d="M4.08929 4.91517C4.08929 8.6556 7.40335 11.6817 11.4802 11.6817C11.8309 11.6817 12.1728 11.6576 12.5059 11.6174L4.15943 3.98407C4.1156 4.28908 4.08929 4.60212 4.08929 4.91517Z" fill="#63A60F"/>
<path opacity="0.3" d="M14.0139 13.0061L3.30023 3.19745C4.56273 4.92319 6.01811 6.67301 7.49979 8.11781C8.65708 9.24155 11.9974 11.7539 14.0139 13.0061Z" fill="#63A60F"/>
<path opacity="0.3" d="M6.77211 6.36796L3.25641 3.15729V8.08568C3.25641 10.2609 4.79946 12.107 6.92993 12.7572C6.01812 11.9144 5.45701 10.7586 5.45701 9.49035C5.45701 8.28634 5.95675 7.19471 6.77211 6.36796Z" fill="#63A60F"/>
<path opacity="0.3" d="M11.5591 10.7586C10.6473 11.778 9.26205 12.4362 7.71023 12.4362C6.67569 12.4362 5.71128 12.1472 4.91345 11.6496C5.87786 12.4924 7.18419 13.0141 8.63081 13.0141H14.014V13.0061L11.5591 10.7586Z" fill="#63A60F"/>
<path opacity="0.3" d="M3.57203 6.10308C3.57203 5.30844 3.72108 4.53788 4.00163 3.83153L3.25641 3.15729V8.08568C3.25641 10.8067 5.66743 13.0141 8.63956 13.0141H14.0227V13.006L13.4879 12.5164C12.7076 12.7733 11.8747 12.9097 10.998 12.9097C6.89486 12.9017 3.57203 9.85958 3.57203 6.10308Z" fill="#EFF6E7"/>
<path d="M13.9263 13.9612C14.3033 13.8649 14.6978 14.0736 14.7943 14.4188C14.8995 14.7639 14.6715 15.1251 14.2858 15.2134C13.9088 15.3097 13.5142 15.101 13.4178 14.7559C13.3213 14.4107 13.5493 14.0576 13.9263 13.9612ZM13.786 13.4716C13.1109 13.6402 12.7076 14.2662 12.8917 14.8843C13.0671 15.5024 13.7597 15.8716 14.4348 15.703C15.1099 15.5345 15.5132 14.9004 15.3291 14.2903C15.1537 13.6723 14.4611 13.3111 13.786 13.4716Z" fill="#63A60F"/>
<path opacity="0.5" d="M14.6802 14.9805C14.5838 15.0928 14.4523 15.1811 14.2944 15.2213C13.9174 15.3176 13.5229 15.1089 13.4265 14.7638C13.3563 14.5069 13.4528 14.25 13.6632 14.0975C13.558 13.9611 13.4703 13.8086 13.3826 13.6561C12.9618 13.929 12.7514 14.4186 12.8917 14.9002C13.067 15.5183 13.7596 15.8875 14.4347 15.7189C14.7503 15.6387 15.0046 15.4621 15.1712 15.2293C15.0046 15.149 14.838 15.0688 14.6802 14.9805Z" fill="#63A60F"/>
<path d="M3.51057 13.9612C3.88757 13.8729 4.2821 14.0816 4.37854 14.4268C4.47498 14.7719 4.24703 15.1331 3.87003 15.2214C3.49304 15.3097 3.09851 15.101 3.00207 14.7559C2.90563 14.4107 3.13358 14.0495 3.51057 13.9612ZM3.37029 13.4716C2.69521 13.6321 2.29191 14.2662 2.46726 14.8843C2.64261 15.5024 3.33522 15.8716 4.01031 15.7111C4.68539 15.5505 5.08869 14.9164 4.92211 14.2984C4.738 13.6803 4.04538 13.3111 3.37029 13.4716Z" fill="#63A60F"/>
<path opacity="0.5" d="M4.25602 14.9885C4.15958 15.1009 4.02807 15.1892 3.87026 15.2213C3.49326 15.3096 3.09873 15.1009 3.00229 14.7558C2.93215 14.4989 3.03736 14.242 3.23901 14.0895C3.1338 13.9531 3.04613 13.8006 2.96722 13.6481C2.54639 13.913 2.32721 14.4026 2.46748 14.8842C2.64283 15.5022 3.33545 15.8715 4.01053 15.7109C4.32616 15.6387 4.58918 15.4541 4.74699 15.2213C4.57164 15.1571 4.41383 15.0768 4.25602 14.9885Z" fill="#63A60F"/>
<path d="M3.59834 2.81215C3.43176 2.81215 3.29148 2.68372 3.29148 2.53121C3.29148 1.87302 3.08983 1.37537 2.70407 1.04627C2.08159 0.508486 1.14349 0.564673 1.13472 0.564673C0.968138 0.580726 0.819094 0.460326 0.801559 0.307819C0.784024 0.155311 0.915534 0.0188577 1.08211 0.00280433C1.13472 0.00280433 2.29201 -0.0774626 3.11614 0.62086C3.64218 1.06233 3.9052 1.70446 3.9052 2.52319C3.9052 2.68372 3.77369 2.81215 3.59834 2.81215Z" fill="#63A60F"/>
</svg>
