<svg width="192" height="192" viewBox="0 0 192 192" fill="none" xmlns="http://www.w3.org/2000/svg">
<path opacity="0.2" d="M184.475 189.014C184.475 187.377 147.757 186.028 102.518 186.028C57.2782 186.028 20.5605 187.377 20.5605 189.014C20.5605 190.651 57.2782 192 102.518 192C147.862 192 184.475 190.651 184.475 189.014Z" fill="#5D5D5D"/>
<path d="M103.675 37.7914C139.34 37.7914 168.272 64.2795 168.272 96.932V156.073H103.675C68.0092 156.073 39.077 129.585 39.077 96.932V37.7914H103.675Z" fill="#63A60F"/>
<path opacity="0.3" d="M159.014 66.4949C153.649 72.1778 150.387 79.5945 150.387 87.6854C150.387 99.7254 157.541 110.224 168.167 115.907V96.9321C168.167 85.8553 164.906 75.4527 159.014 66.4949Z" fill="#63A60F"/>
<path d="M133.659 44.6301C123.559 49.9277 116.826 59.8487 116.826 71.3108C116.826 88.2632 131.871 102.037 150.387 102.037C156.91 102.037 163.012 100.303 168.167 97.3173V96.932C168.167 74.2004 154.175 54.4547 133.659 44.6301Z" fill="#63A60F"/>
<path opacity="0.5" d="M82.9487 49.2508C66.3258 49.2508 51.0707 54.5484 39.077 63.5062V97.0257C39.077 129.678 68.0092 156.166 103.675 156.166H134.606C145.863 144.801 152.702 129.775 152.702 113.207C152.702 77.8579 121.455 49.2508 82.9487 49.2508Z" fill="#EFF6E7"/>
<path d="M168.167 155.976L103.675 156.072C68.0092 156.072 39.077 129.584 39.077 96.9318V37.8875L168.167 155.976Z" fill="#63A60F"/>
<path opacity="0.3" d="M49.0719 58.9817C49.0719 103.867 88.8406 140.18 137.762 140.18C141.971 140.18 146.074 139.891 150.072 139.409L49.9136 47.8085C49.3875 51.4687 49.0719 55.2252 49.0719 58.9817Z" fill="#63A60F"/>
<path opacity="0.3" d="M168.167 156.072L39.6031 38.3691C54.7531 59.0779 72.2177 80.0758 89.9978 97.4134C103.885 110.898 143.97 141.046 168.167 156.072Z" fill="#63A60F"/>
<path opacity="0.3" d="M81.2654 76.4156L39.077 37.8875V97.0281C39.077 123.131 57.5936 145.285 83.1592 153.087C72.2175 142.973 65.4842 129.103 65.4842 113.884C65.4842 99.4361 71.4811 86.3366 81.2654 76.4156Z" fill="#63A60F"/>
<path opacity="0.3" d="M138.709 129.103C127.767 141.336 111.145 149.234 92.5227 149.234C80.1081 149.234 68.5352 145.767 58.9613 139.795C70.5342 149.908 86.2102 156.169 103.57 156.169H168.167V156.073L138.709 129.103Z" fill="#63A60F"/>
<path opacity="0.3" d="M42.8645 73.237C42.8645 63.7013 44.653 54.4545 48.0197 45.9784L39.077 37.8875V97.0281C39.077 129.681 68.0092 156.169 103.675 156.169H168.273V156.072L161.855 150.197C152.491 153.279 142.497 154.917 131.976 154.917C82.7383 154.82 42.8645 118.315 42.8645 73.237Z" fill="#EFF6E7"/>
<path d="M167.116 167.535C171.639 166.379 176.374 168.883 177.531 173.025C178.794 177.167 176.058 181.501 171.429 182.561C166.905 183.717 162.171 181.212 161.013 177.07C159.856 172.929 162.592 168.691 167.116 167.535ZM165.432 161.659C157.331 163.682 152.492 171.195 154.701 178.612C156.805 186.028 165.117 190.459 173.218 188.436C181.319 186.414 186.158 178.804 183.949 171.484C181.845 164.067 173.533 159.733 165.432 161.659Z" fill="#63A60F"/>
<path opacity="0.5" d="M176.162 179.766C175.005 181.114 173.427 182.174 171.533 182.656C167.009 183.811 162.275 181.307 161.118 177.165C160.276 174.083 161.433 171.001 163.958 169.171C162.696 167.533 161.644 165.703 160.591 163.873C155.541 167.148 153.016 173.023 154.7 178.803C156.804 186.219 165.115 190.65 173.216 188.627C177.004 187.664 180.055 185.545 182.054 182.752C180.055 181.789 178.056 180.825 176.162 179.766Z" fill="#63A60F"/>
<path d="M42.1269 167.535C46.6509 166.475 51.3852 168.98 52.5425 173.121C53.6998 177.263 50.9644 181.598 46.4404 182.657C41.9165 183.717 37.1821 181.212 36.0249 177.071C34.8676 172.929 37.603 168.594 42.1269 167.535ZM40.4436 161.659C32.3426 163.586 27.503 171.195 29.6072 178.612C31.7113 186.028 40.0228 190.459 48.1238 188.533C56.2248 186.606 61.0644 178.997 59.0654 171.58C56.856 164.164 48.5446 159.733 40.4436 161.659Z" fill="#63A60F"/>
<path opacity="0.5" d="M51.0711 179.862C49.9138 181.211 48.3357 182.27 46.4419 182.656C41.918 183.715 37.1836 181.211 36.0263 177.069C35.1847 173.987 36.4472 170.905 38.8669 169.075C37.6044 167.437 36.5524 165.607 35.6055 163.777C30.5555 166.956 27.9253 172.831 29.6086 178.61C31.7128 186.027 40.0242 190.458 48.1252 188.531C51.9127 187.664 55.069 185.449 56.9627 182.656C54.8586 181.885 52.9648 180.922 51.0711 179.862Z" fill="#63A60F"/>
<path d="M43.1802 33.7458C41.1812 33.7458 39.4979 32.2046 39.4979 30.3745C39.4979 22.4763 37.0781 16.5044 32.449 12.5553C24.9792 6.10183 13.7219 6.77607 13.6167 6.77607C11.6178 6.96871 9.82925 5.52391 9.61883 3.69382C9.40841 1.86374 10.9865 0.226293 12.9855 0.033652C13.6167 0.033652 27.5042 -0.929551 37.3938 7.45031C43.7062 12.7479 46.8625 20.4536 46.8625 30.2782C46.8625 32.2046 45.2844 33.7458 43.1802 33.7458Z" fill="#63A60F"/>
</svg>
