<svg width="64" height="64" viewBox="0 0 64 64" fill="none" xmlns="http://www.w3.org/2000/svg">
<path opacity="0.2" d="M61.4916 63.0047C61.4916 62.4589 49.2524 62.0094 34.1726 62.0094C19.0927 62.0094 6.85352 62.4589 6.85352 63.0047C6.85352 63.5505 19.0927 64 34.1726 64C49.2874 64 61.4916 63.5505 61.4916 63.0047Z" fill="#5D5D5D"/>
<path d="M34.5583 12.5971C46.4468 12.5971 56.0909 21.4265 56.0909 32.3107V52.0242H34.5583C22.6698 52.0242 13.0257 43.1949 13.0257 32.3107V12.5971H34.5583Z" fill="#63A60F"/>
<path opacity="0.3" d="M53.0048 22.1649C51.2162 24.0592 50.1291 26.5314 50.1291 29.2284C50.1291 33.2418 52.5138 36.7414 56.0558 38.6357V32.3107C56.0558 28.6184 54.9687 25.1508 53.0048 22.1649Z" fill="#63A60F"/>
<path d="M44.5531 14.8766C41.1864 16.6425 38.942 19.9495 38.942 23.7702C38.942 29.421 43.9569 34.0123 50.1291 34.0123C52.3034 34.0123 54.3374 33.4344 56.0558 32.4391V32.3106C56.0558 24.7334 51.3916 18.1515 44.5531 14.8766Z" fill="#63A60F"/>
<path opacity="0.5" d="M27.6496 16.4169C22.1087 16.4169 17.0236 18.1827 13.0257 21.1687V32.3418C13.0257 43.226 22.6698 52.0554 34.5583 52.0554H44.8687C48.6211 48.2668 50.9006 43.2581 50.9006 37.7358C50.9006 25.9526 40.485 16.4169 27.6496 16.4169Z" fill="#EFF6E7"/>
<path d="M56.0558 51.992L34.5583 52.0242C22.6698 52.0242 13.0257 43.1948 13.0257 32.3106V12.6292L56.0558 51.992Z" fill="#63A60F"/>
<path opacity="0.3" d="M16.3574 19.6605C16.3574 34.6223 29.6136 46.7265 45.9208 46.7265C47.3236 46.7265 48.6913 46.6302 50.0239 46.4697L16.6379 15.9362C16.4626 17.1562 16.3574 18.4084 16.3574 19.6605Z" fill="#63A60F"/>
<path opacity="0.3" d="M56.0558 52.0241L13.201 12.7897C18.251 19.6926 24.0726 26.6919 29.9993 32.4711C34.6284 36.9661 47.9899 47.0155 56.0558 52.0241Z" fill="#63A60F"/>
<path opacity="0.3" d="M27.0885 25.4719L13.0257 12.6292V32.3427C13.0257 41.0436 19.1979 48.4282 27.7198 51.0288C24.0725 47.6576 21.8281 43.0343 21.8281 37.9614C21.8281 33.1454 23.8271 28.7789 27.0885 25.4719Z" fill="#63A60F"/>
<path opacity="0.3" d="M46.2364 43.0344C42.5892 47.1119 37.0482 49.7447 30.8409 49.7447C26.7028 49.7447 22.8451 48.5888 19.6538 46.5982C23.5114 49.9694 28.7368 52.0564 34.5232 52.0564H56.0558V52.0243L46.2364 43.0344Z" fill="#63A60F"/>
<path opacity="0.3" d="M14.2882 24.4123C14.2882 21.2338 14.8844 18.1515 16.0066 15.3261L13.0257 12.6292V32.3427C13.0257 43.2269 22.6698 52.0563 34.5583 52.0563H56.0909V52.0242L53.9516 50.0656C50.8305 51.0931 47.4989 51.6389 43.9919 51.6389C27.5795 51.6068 14.2882 39.4383 14.2882 24.4123Z" fill="#EFF6E7"/>
<path d="M55.7052 55.8449C57.2132 55.4596 58.7913 56.2944 59.177 57.675C59.5979 59.0556 58.6861 60.5004 57.143 60.8536C55.635 61.2389 54.0569 60.4041 53.6712 59.0235C53.2854 57.6429 54.1972 56.2302 55.7052 55.8449ZM55.1441 53.8864C52.4437 54.5607 50.8305 57.065 51.567 59.5372C52.2684 62.0094 55.0389 63.4863 57.7392 62.8121C60.4395 62.1379 62.0527 59.6014 61.3163 57.1613C60.6149 54.6891 57.8444 53.2443 55.1441 53.8864Z" fill="#63A60F"/>
<path opacity="0.5" d="M58.7208 59.922C58.335 60.3715 57.809 60.7247 57.1777 60.8852C55.6697 61.2705 54.0916 60.4357 53.7058 59.0551C53.4253 58.0277 53.811 57.0003 54.6527 56.3902C54.2319 55.8444 53.8812 55.2344 53.5305 54.6244C51.8472 55.716 51.0055 57.6745 51.5666 59.6009C52.268 62.0731 55.0385 63.5501 57.7388 62.8758C59.0013 62.5547 60.0183 61.8484 60.6846 60.9173C60.0183 60.5962 59.352 60.2752 58.7208 59.922Z" fill="#63A60F"/>
<path d="M14.0423 55.8449C15.5503 55.4918 17.1284 56.3265 17.5142 57.7071C17.9 59.0877 16.9882 60.5325 15.4802 60.8857C13.9722 61.2389 12.3941 60.4041 12.0083 59.0235C11.6226 57.6429 12.5344 56.1981 14.0423 55.8449ZM13.4812 53.8864C10.7809 54.5286 9.16771 57.065 9.86909 59.5372C10.5705 62.0094 13.341 63.4863 16.0413 62.8442C18.7416 62.2021 20.3548 59.6656 19.6885 57.1934C18.9521 54.7212 16.1816 53.2443 13.4812 53.8864Z" fill="#63A60F"/>
<path opacity="0.5" d="M17.0238 59.9541C16.638 60.4036 16.112 60.7568 15.4807 60.8852C13.9727 61.2384 12.3946 60.4036 12.0089 59.023C11.7283 57.9956 12.1491 56.9682 12.9557 56.3582C12.5349 55.8124 12.1842 55.2023 11.8686 54.5923C10.1852 55.6518 9.30852 57.6103 9.86962 59.5368C10.571 62.009 13.3415 63.4859 16.0418 62.8437C17.3043 62.5548 18.3564 61.8163 18.9877 60.8852C18.2863 60.6284 17.655 60.3073 17.0238 59.9541Z" fill="#63A60F"/>
<path d="M14.3934 11.2486C13.7271 11.2486 13.166 10.7349 13.166 10.1248C13.166 7.49209 12.3594 5.50147 10.8163 4.1851C8.32642 2.03394 4.574 2.25869 4.53893 2.25869C3.87261 2.3229 3.27644 1.8413 3.2063 1.23127C3.13616 0.621246 3.6622 0.0754309 4.32852 0.0112173C4.53893 0.0112173 9.16809 -0.30985 12.4646 2.48344C14.5688 4.24931 15.6208 6.81785 15.6208 10.0927C15.6208 10.7349 15.0948 11.2486 14.3934 11.2486Z" fill="#63A60F"/>
</svg>
