<svg width="76" height="76" viewBox="0 0 76 76" fill="none" xmlns="http://www.w3.org/2000/svg">
<path opacity="0.2" d="M73.0213 74.8181C73.0213 74.1699 58.4872 73.6361 40.5799 73.6361C22.6726 73.6361 8.13855 74.1699 8.13855 74.8181C8.13855 75.4662 22.6726 76 40.5799 76C58.5288 76 73.0213 75.4662 73.0213 74.8181Z" fill="#5D5D5D"/>
<path d="M41.0379 14.9591C55.1555 14.9591 66.6079 25.444 66.6079 38.369V61.7788H41.0379C26.9203 61.7788 15.468 51.2939 15.468 38.369V14.9591H41.0379Z" fill="#63A60F"/>
<path opacity="0.3" d="M62.9431 26.3209C60.8192 28.5704 59.5282 31.5062 59.5282 34.7088C59.5282 39.4747 62.36 43.6305 66.5662 45.88V38.369C66.5662 33.9844 65.2752 29.8667 62.9431 26.3209Z" fill="#63A60F"/>
<path d="M52.9067 17.6661C48.9088 19.763 46.2435 23.6901 46.2435 28.2272C46.2435 34.9375 52.1987 40.3896 59.5283 40.3896C62.1102 40.3896 64.5256 39.7034 66.5662 38.5214V38.3689C66.5662 29.371 61.0275 21.555 52.9067 17.6661Z" fill="#63A60F"/>
<path opacity="0.5" d="M32.8339 19.4951C26.254 19.4951 20.2155 21.5921 15.468 25.1379V38.406C15.468 51.331 26.9203 61.8159 41.0379 61.8159H53.2815C57.7375 57.3169 60.4444 51.3691 60.4444 44.8113C60.4444 30.8188 48.0759 19.4951 32.8339 19.4951Z" fill="#EFF6E7"/>
<path d="M66.5662 61.7406L41.0379 61.7787C26.9203 61.7787 15.468 51.2938 15.468 38.3689V14.9971L66.5662 61.7406Z" fill="#63A60F"/>
<path opacity="0.3" d="M19.4243 23.347C19.4243 41.114 35.166 55.4878 54.5309 55.4878C56.1967 55.4878 57.8208 55.3734 59.4033 55.1828L19.7574 18.9243C19.5492 20.3731 19.4243 21.86 19.4243 23.347Z" fill="#63A60F"/>
<path opacity="0.3" d="M66.5662 61.7787L15.6762 15.1878C21.6731 23.3851 28.5861 31.6967 35.6241 38.5595C41.1212 43.8973 56.9879 55.8309 66.5662 61.7787Z" fill="#63A60F"/>
<path opacity="0.3" d="M32.1675 30.2478L15.468 14.9971V38.407C15.468 48.7393 22.7975 57.5085 32.9172 60.5968C28.5861 56.5934 25.9208 51.1032 25.9208 45.0792C25.9208 39.3601 28.2946 34.1749 32.1675 30.2478Z" fill="#63A60F"/>
<path opacity="0.3" d="M54.9057 51.1033C50.5746 55.9454 43.9947 59.0718 36.6236 59.0718C31.7095 59.0718 27.1286 57.6993 23.3389 55.3354C27.9198 59.3387 34.1249 61.817 40.9963 61.817H66.5663V61.7788L54.9057 51.1033Z" fill="#63A60F"/>
<path opacity="0.3" d="M16.9672 28.9897C16.9672 25.2151 17.6751 21.5549 19.0078 18.1998L15.468 14.9971V38.407C15.468 51.332 26.9203 61.8168 41.0379 61.8168H66.6079V61.7787L64.0675 59.453C60.3611 60.673 56.4049 61.3212 52.2404 61.3212C32.7506 61.2831 16.9672 46.833 16.9672 28.9897Z" fill="#EFF6E7"/>
<path d="M66.1499 66.3158C67.9406 65.8583 69.8147 66.8496 70.2727 68.4891C70.7725 70.1285 69.6897 71.8442 67.8573 72.2636C66.0666 72.7211 64.1926 71.7298 63.7345 70.0904C63.2764 68.4509 64.3592 66.7734 66.1499 66.3158ZM65.4836 63.9901C62.2769 64.7908 60.3613 67.7647 61.2358 70.7004C62.0687 73.6362 65.3586 75.39 68.5653 74.5894C71.772 73.7887 73.6876 70.7767 72.8131 67.879C71.9802 64.9433 68.6902 63.2276 65.4836 63.9901Z" fill="#63A60F"/>
<path opacity="0.5" d="M69.7309 71.1574C69.2728 71.6911 68.6481 72.1105 67.8985 72.3012C66.1078 72.7587 64.2338 71.7674 63.7757 70.1279C63.4425 68.9079 63.9006 67.6878 64.9001 66.9634C64.4004 66.3152 63.9839 65.5908 63.5675 64.8664C61.5685 66.1627 60.569 68.4885 61.2354 70.7761C62.0683 73.7119 65.3582 75.4657 68.5649 74.665C70.0641 74.2838 71.2718 73.445 72.063 72.3393C71.2718 71.958 70.4805 71.5767 69.7309 71.1574Z" fill="#63A60F"/>
<path d="M16.6752 66.3159C18.4659 65.8965 20.34 66.8878 20.7981 68.5272C21.2561 70.1667 20.1734 71.8824 18.3827 72.3018C16.5919 72.7212 14.7179 71.7299 14.2598 70.0904C13.8017 68.451 14.8845 66.7353 16.6752 66.3159ZM16.0089 63.9901C12.8022 64.7527 10.8866 67.7647 11.7195 70.7004C12.5524 73.6362 15.8423 75.39 19.049 74.6275C22.2556 73.865 24.1713 70.8529 23.38 67.9172C22.5055 64.9814 19.2156 63.2276 16.0089 63.9901Z" fill="#63A60F"/>
<path opacity="0.5" d="M20.2157 71.1955C19.7576 71.7293 19.1329 72.1487 18.3833 72.3012C16.5926 72.7206 14.7186 71.7293 14.2605 70.0899C13.9273 68.8698 14.4271 67.6497 15.3849 66.9253C14.8852 66.2772 14.4687 65.5528 14.0939 64.8284C12.0949 66.0866 11.0538 68.4123 11.7201 70.6999C12.553 73.6356 15.843 75.3895 19.0496 74.6269C20.5488 74.2838 21.7982 73.4069 22.5478 72.3012C21.7149 71.9962 20.9653 71.6149 20.2157 71.1955Z" fill="#63A60F"/>
<path d="M17.0922 13.3577C16.3009 13.3577 15.6346 12.7477 15.6346 12.0233C15.6346 8.89686 14.6768 6.533 12.8444 4.9698C9.8876 2.41531 5.4316 2.6822 5.38996 2.6822C4.5987 2.75845 3.89074 2.18655 3.80745 1.46214C3.72416 0.737729 4.34883 0.0895741 5.14009 0.0133206C5.38996 0.0133206 10.8871 -0.367947 14.8017 2.94908C17.3004 5.04606 18.5497 8.0962 18.5497 11.9851C18.5497 12.7477 17.9251 13.3577 17.0922 13.3577Z" fill="#63A60F"/>
</svg>
